<svg width="276" height="276" xmlns="http://www.w3.org/2000/svg" xmlns:xlink="http://www.w3.org/1999/xlink" xml:space="preserve" overflow="hidden"><defs><clipPath id="clip0"><rect x="364" y="184" width="276" height="276"/></clipPath></defs><g clip-path="url(#clip0)" transform="translate(-364 -184)"><path d="M626.831 214.628 614.503 214.628C614.503 233.341 614.556 232.58 614.339 234.659 612.767 249.758 599.965 261.568 584.458 261.568 568.95 261.568 556.149 249.758 554.577 234.659 554.357 232.56 554.412 233.136 554.412 214.628L532.044 214.628C532.044 233.341 532.098 232.58 531.88 234.659 530.308 249.758 517.506 261.568 501.999 261.568 486.492 261.568 473.69 249.758 472.118 234.659 471.898 232.56 471.953 233.136 471.953 214.628L449.586 214.628C449.586 233.341 449.639 232.58 449.421 234.659 447.849 249.758 435.048 261.568 419.54 261.568 404.033 261.568 391.231 249.758 389.659 234.659 389.44 232.56 389.495 233.136 389.495 214.628L377.169 214.628C371.639 214.628 367.154 219.113 367.154 224.644L367.154 449.985C367.154 455.515 371.639 460 377.169 460L626.831 460C632.361 460 636.846 455.515 636.846 449.985L636.846 224.644C636.846 219.113 632.362 214.628 626.831 214.628ZM616.816 439.97 387.184 439.97 387.184 288.406 616.816 288.406 616.816 439.97Z" fill="#FFFFFF"/><path d="M435.231 420.227 494.344 420.227 474.314 400.196 445.246 400.196 445.246 329.182 516.262 329.182 516.262 364.357 536.292 344.328 536.292 319.167C536.292 313.636 531.808 309.152 526.277 309.152L435.231 309.152C429.701 309.152 425.216 313.636 425.216 319.167L425.216 410.212C425.217 415.743 429.701 420.227 435.231 420.227Z" fill="#FFFFFF"/><path d="M501.999 246.546C510.296 246.546 517.022 239.82 517.022 231.523L517.022 199.023C517.022 190.726 510.296 184 501.999 184 493.702 184 486.976 190.726 486.976 199.023L486.976 231.523C486.976 239.82 493.702 246.546 501.999 246.546Z" fill="#FFFFFF"/><path d="M584.458 246.546C592.754 246.546 599.481 239.82 599.481 231.523L599.481 199.023C599.481 190.726 592.754 184 584.458 184 576.161 184 569.435 190.726 569.435 199.023L569.435 231.523C569.435 239.82 576.161 246.546 584.458 246.546Z" fill="#FFFFFF"/><path d="M419.541 246.546C427.838 246.546 434.564 239.82 434.564 231.523L434.564 199.023C434.564 190.726 427.838 184 419.541 184 411.245 184 404.518 190.726 404.518 199.023L404.518 231.523C404.518 239.82 411.244 246.546 419.541 246.546Z" fill="#FFFFFF"/><path d="M481.318 357.627C481.073 357.383 480.819 357.153 480.557 356.94 476.885 353.946 471.586 353.946 467.914 356.94 467.652 357.154 467.398 357.383 467.153 357.627 463.242 361.538 463.242 367.879 467.153 371.791L505.695 410.333C507.651 412.288 510.213 413.266 512.776 413.266 515.339 413.266 517.902 412.288 519.858 410.333L587.672 342.52C591.583 338.609 591.583 332.268 587.672 328.356 583.761 324.447 577.421 324.446 573.507 328.356L512.775 389.087 481.318 357.627Z"/></g></svg>